<mxfile host="Electron" modified="2024-06-28T18:18:41.775Z" agent="Mozilla/5.0 (Windows NT 10.0; Win64; x64) AppleWebKit/537.36 (KHTML, like Gecko) draw.io/24.6.1 Chrome/124.0.6367.207 Electron/30.0.6 Safari/537.36" etag="hmN0iZL5MdmgaG6jCzkH" version="24.6.1" type="device">
  <diagram name="Page-1" id="lJj-ZM2UHCiAGcsIh958">
    <mxGraphModel dx="2722" dy="580" grid="1" gridSize="10" guides="1" tooltips="1" connect="1" arrows="1" fold="1" page="1" pageScale="1" pageWidth="1169" pageHeight="827" math="0" shadow="0">
      <root>
        <mxCell id="0" />
        <mxCell id="1" parent="0" />
        <mxCell id="OPvMVFJ-htap1hF1MXuL-352" value="Empréstimo" style="text;html=1;align=left;verticalAlign=middle;resizable=0;points=[];autosize=1;strokeColor=none;fillColor=none;fontSize=25;" parent="1" vertex="1">
          <mxGeometry x="134" y="1169.5" width="160" height="40" as="geometry" />
        </mxCell>
        <mxCell id="OPvMVFJ-htap1hF1MXuL-353" value="Compra" style="text;html=1;align=left;verticalAlign=middle;resizable=0;points=[];autosize=1;strokeColor=none;fillColor=none;fontSize=25;" parent="1" vertex="1">
          <mxGeometry x="733" y="1020" width="110" height="40" as="geometry" />
        </mxCell>
        <mxCell id="OPvMVFJ-htap1hF1MXuL-354" value="Usuário" style="text;html=1;align=left;verticalAlign=middle;resizable=0;points=[];autosize=1;strokeColor=none;fillColor=none;fontSize=25;" parent="1" vertex="1">
          <mxGeometry x="1172.0000000000002" y="1169.5" width="110" height="40" as="geometry" />
        </mxCell>
        <mxCell id="OPvMVFJ-htap1hF1MXuL-355" value="Livro" style="text;html=1;align=left;verticalAlign=middle;resizable=0;points=[];autosize=1;strokeColor=none;fillColor=none;fontSize=25;" parent="1" vertex="1">
          <mxGeometry x="134" y="1473" width="80" height="40" as="geometry" />
        </mxCell>
        <mxCell id="OPvMVFJ-htap1hF1MXuL-356" value="Biblioteca" style="text;html=1;align=left;verticalAlign=middle;resizable=0;points=[];autosize=1;strokeColor=none;fillColor=none;fontSize=25;" parent="1" vertex="1">
          <mxGeometry x="140" y="860" width="130" height="40" as="geometry" />
        </mxCell>
        <mxCell id="OPvMVFJ-htap1hF1MXuL-357" value="Universidade" style="text;html=1;align=left;verticalAlign=middle;resizable=0;points=[];autosize=1;strokeColor=none;fillColor=none;fontSize=25;" parent="1" vertex="1">
          <mxGeometry x="905.9999999999999" y="860" width="170" height="40" as="geometry" />
        </mxCell>
        <mxCell id="4RG7odBrNEbPB10TdpqU-33" style="edgeStyle=orthogonalEdgeStyle;rounded=0;orthogonalLoop=1;jettySize=auto;html=1;exitX=0.5;exitY=0;exitDx=0;exitDy=0;entryX=0.25;entryY=1;entryDx=0;entryDy=0;" parent="1" source="OPvMVFJ-htap1hF1MXuL-358" target="Nn8z03dCiSWKTQsUW6GA-33" edge="1">
          <mxGeometry relative="1" as="geometry" />
        </mxCell>
        <mxCell id="OPvMVFJ-htap1hF1MXuL-358" value="CPF_Funcionario" style="rounded=0;whiteSpace=wrap;html=1;fontSize=20;" parent="1" vertex="1">
          <mxGeometry x="454.5" y="1209.5" width="160" height="50" as="geometry" />
        </mxCell>
        <mxCell id="4RG7odBrNEbPB10TdpqU-34" style="edgeStyle=orthogonalEdgeStyle;rounded=0;orthogonalLoop=1;jettySize=auto;html=1;exitX=0.5;exitY=1;exitDx=0;exitDy=0;entryX=0.5;entryY=1;entryDx=0;entryDy=0;" parent="1" source="OPvMVFJ-htap1hF1MXuL-359" target="OPvMVFJ-htap1hF1MXuL-368" edge="1">
          <mxGeometry relative="1" as="geometry">
            <Array as="points">
              <mxPoint x="214" y="1293" />
              <mxPoint x="1252" y="1293" />
            </Array>
          </mxGeometry>
        </mxCell>
        <mxCell id="OPvMVFJ-htap1hF1MXuL-359" value="CPF_Usuario" style="rounded=0;whiteSpace=wrap;html=1;fontSize=20;fontStyle=4" parent="1" vertex="1">
          <mxGeometry x="134" y="1209.5" width="160" height="50" as="geometry" />
        </mxCell>
        <mxCell id="4RG7odBrNEbPB10TdpqU-61" style="edgeStyle=orthogonalEdgeStyle;rounded=0;orthogonalLoop=1;jettySize=auto;html=1;exitX=0.5;exitY=1;exitDx=0;exitDy=0;entryX=0.5;entryY=0;entryDx=0;entryDy=0;" parent="1" source="OPvMVFJ-htap1hF1MXuL-361" target="Nn8z03dCiSWKTQsUW6GA-2" edge="1">
          <mxGeometry relative="1" as="geometry">
            <Array as="points">
              <mxPoint x="374" y="1323" />
              <mxPoint x="640" y="1323" />
              <mxPoint x="640" y="1453" />
              <mxPoint x="373" y="1453" />
            </Array>
          </mxGeometry>
        </mxCell>
        <mxCell id="OPvMVFJ-htap1hF1MXuL-361" value="livro_id" style="rounded=0;whiteSpace=wrap;html=1;fontSize=20;fontStyle=4" parent="1" vertex="1">
          <mxGeometry x="294" y="1209.5" width="160" height="50" as="geometry" />
        </mxCell>
        <mxCell id="OPvMVFJ-htap1hF1MXuL-362" value="dataLocacao" style="rounded=0;whiteSpace=wrap;html=1;fontSize=20;fontStyle=4" parent="1" vertex="1">
          <mxGeometry x="774.5" y="1209.5" width="160" height="50" as="geometry" />
        </mxCell>
        <mxCell id="OPvMVFJ-htap1hF1MXuL-363" value="dataDevolucao" style="rounded=0;whiteSpace=wrap;html=1;fontSize=20;" parent="1" vertex="1">
          <mxGeometry x="614" y="1209.5" width="160" height="50" as="geometry" />
        </mxCell>
        <mxCell id="OPvMVFJ-htap1hF1MXuL-364" value="valorPagar" style="rounded=0;whiteSpace=wrap;html=1;fontSize=20;" parent="1" vertex="1">
          <mxGeometry x="935" y="1209.5" width="160" height="50" as="geometry" />
        </mxCell>
        <mxCell id="OPvMVFJ-htap1hF1MXuL-365" value="CPF_Funcionario" style="rounded=0;whiteSpace=wrap;html=1;fontSize=20;" parent="1" vertex="1">
          <mxGeometry x="733" y="1060" width="160" height="50" as="geometry" />
        </mxCell>
        <mxCell id="4RG7odBrNEbPB10TdpqU-1" style="edgeStyle=orthogonalEdgeStyle;rounded=0;orthogonalLoop=1;jettySize=auto;html=1;exitX=0.5;exitY=1;exitDx=0;exitDy=0;entryX=0.5;entryY=1;entryDx=0;entryDy=0;" parent="1" source="OPvMVFJ-htap1hF1MXuL-365" target="Nn8z03dCiSWKTQsUW6GA-33" edge="1">
          <mxGeometry relative="1" as="geometry" />
        </mxCell>
        <mxCell id="4RG7odBrNEbPB10TdpqU-18" style="edgeStyle=orthogonalEdgeStyle;rounded=0;orthogonalLoop=1;jettySize=auto;html=1;exitX=0.5;exitY=1;exitDx=0;exitDy=0;entryX=0.75;entryY=0;entryDx=0;entryDy=0;" parent="1" source="OPvMVFJ-htap1hF1MXuL-366" target="OPvMVFJ-htap1hF1MXuL-368" edge="1">
          <mxGeometry relative="1" as="geometry" />
        </mxCell>
        <mxCell id="OPvMVFJ-htap1hF1MXuL-366" value="CPF_Usuario" style="rounded=0;whiteSpace=wrap;html=1;fontSize=20;fontStyle=4" parent="1" vertex="1">
          <mxGeometry x="893" y="1060" width="160" height="50" as="geometry" />
        </mxCell>
        <mxCell id="4RG7odBrNEbPB10TdpqU-62" style="edgeStyle=orthogonalEdgeStyle;rounded=0;orthogonalLoop=1;jettySize=auto;html=1;exitX=0.5;exitY=1;exitDx=0;exitDy=0;entryX=0.5;entryY=1;entryDx=0;entryDy=0;" parent="1" source="OPvMVFJ-htap1hF1MXuL-367" target="Nn8z03dCiSWKTQsUW6GA-2" edge="1">
          <mxGeometry relative="1" as="geometry" />
        </mxCell>
        <mxCell id="OPvMVFJ-htap1hF1MXuL-367" value="livro_id" style="rounded=0;whiteSpace=wrap;html=1;fontSize=20;fontStyle=4" parent="1" vertex="1">
          <mxGeometry x="1053" y="1060" width="160" height="50" as="geometry" />
        </mxCell>
        <mxCell id="OPvMVFJ-htap1hF1MXuL-368" value="CPF" style="rounded=0;whiteSpace=wrap;html=1;fontSize=20;fontStyle=4" parent="1" vertex="1">
          <mxGeometry x="1172" y="1209.5" width="160" height="50" as="geometry" />
        </mxCell>
        <mxCell id="OPvMVFJ-htap1hF1MXuL-369" value="nome" style="rounded=0;whiteSpace=wrap;html=1;fontSize=20;fontStyle=0" parent="1" vertex="1">
          <mxGeometry x="1332" y="1209.5" width="160" height="50" as="geometry" />
        </mxCell>
        <mxCell id="OPvMVFJ-htap1hF1MXuL-370" value="telefone" style="rounded=0;whiteSpace=wrap;html=1;fontSize=20;fontStyle=0" parent="1" vertex="1">
          <mxGeometry x="1492" y="1209.5" width="160" height="50" as="geometry" />
        </mxCell>
        <mxCell id="OPvMVFJ-htap1hF1MXuL-371" value="endereço" style="rounded=0;whiteSpace=wrap;html=1;fontSize=20;fontStyle=0" parent="1" vertex="1">
          <mxGeometry x="1652" y="1209.5" width="160" height="50" as="geometry" />
        </mxCell>
        <mxCell id="Nn8z03dCiSWKTQsUW6GA-1" value="preço" style="rounded=0;whiteSpace=wrap;html=1;fontSize=20;fontStyle=0" parent="1" vertex="1">
          <mxGeometry x="132.5" y="1513" width="160" height="50" as="geometry" />
        </mxCell>
        <mxCell id="Nn8z03dCiSWKTQsUW6GA-2" value="id" style="rounded=0;whiteSpace=wrap;html=1;fontSize=20;fontStyle=4" parent="1" vertex="1">
          <mxGeometry x="292.5" y="1513" width="160" height="50" as="geometry" />
        </mxCell>
        <mxCell id="Nn8z03dCiSWKTQsUW6GA-4" value="genero" style="rounded=0;whiteSpace=wrap;html=1;fontSize=20;fontStyle=0" parent="1" vertex="1">
          <mxGeometry x="453.5" y="1513" width="160" height="50" as="geometry" />
        </mxCell>
        <mxCell id="Nn8z03dCiSWKTQsUW6GA-6" value="dataPublicacao" style="rounded=0;whiteSpace=wrap;html=1;fontSize=20;" parent="1" vertex="1">
          <mxGeometry x="613.5" y="1513" width="160" height="50" as="geometry" />
        </mxCell>
        <mxCell id="Nn8z03dCiSWKTQsUW6GA-8" value="nome" style="rounded=0;whiteSpace=wrap;html=1;fontSize=20;fontStyle=0" parent="1" vertex="1">
          <mxGeometry x="140" y="900" width="160" height="50" as="geometry" />
        </mxCell>
        <mxCell id="Nn8z03dCiSWKTQsUW6GA-9" value="id" style="rounded=0;whiteSpace=wrap;html=1;fontSize=20;fontStyle=4" parent="1" vertex="1">
          <mxGeometry x="300" y="900" width="160" height="50" as="geometry" />
        </mxCell>
        <mxCell id="4RG7odBrNEbPB10TdpqU-60" style="edgeStyle=orthogonalEdgeStyle;rounded=0;orthogonalLoop=1;jettySize=auto;html=1;exitX=0.75;exitY=1;exitDx=0;exitDy=0;entryX=0.5;entryY=1;entryDx=0;entryDy=0;" parent="1" source="Nn8z03dCiSWKTQsUW6GA-10" target="Nn8z03dCiSWKTQsUW6GA-16" edge="1">
          <mxGeometry relative="1" as="geometry">
            <Array as="points">
              <mxPoint x="580" y="983" />
              <mxPoint x="984" y="983" />
            </Array>
          </mxGeometry>
        </mxCell>
        <mxCell id="Nn8z03dCiSWKTQsUW6GA-10" value="universidade_id" style="rounded=0;whiteSpace=wrap;html=1;fontSize=20;fontStyle=0" parent="1" vertex="1">
          <mxGeometry x="460" y="900" width="160" height="50" as="geometry" />
        </mxCell>
        <mxCell id="Nn8z03dCiSWKTQsUW6GA-11" value="endereço" style="rounded=0;whiteSpace=wrap;html=1;fontSize=20;fontStyle=0" parent="1" vertex="1">
          <mxGeometry x="620" y="900" width="160" height="50" as="geometry" />
        </mxCell>
        <mxCell id="Nn8z03dCiSWKTQsUW6GA-16" value="id" style="rounded=0;whiteSpace=wrap;html=1;fontSize=20;fontStyle=4" parent="1" vertex="1">
          <mxGeometry x="903.9999999999999" y="900" width="160" height="50" as="geometry" />
        </mxCell>
        <mxCell id="Nn8z03dCiSWKTQsUW6GA-17" value="nome" style="rounded=0;whiteSpace=wrap;html=1;fontSize=20;fontStyle=0" parent="1" vertex="1">
          <mxGeometry x="1064" y="900" width="160" height="50" as="geometry" />
        </mxCell>
        <mxCell id="Nn8z03dCiSWKTQsUW6GA-20" value="Personagem" style="text;html=1;align=left;verticalAlign=middle;resizable=0;points=[];autosize=1;strokeColor=none;fillColor=none;fontSize=25;" parent="1" vertex="1">
          <mxGeometry x="1172" y="1343" width="170" height="40" as="geometry" />
        </mxCell>
        <mxCell id="Nn8z03dCiSWKTQsUW6GA-22" value="nome" style="rounded=0;whiteSpace=wrap;html=1;fontSize=20;fontStyle=0" parent="1" vertex="1">
          <mxGeometry x="1332" y="1383" width="160" height="50" as="geometry" />
        </mxCell>
        <mxCell id="Nn8z03dCiSWKTQsUW6GA-24" value="id" style="rounded=0;whiteSpace=wrap;html=1;fontSize=20;fontStyle=4" parent="1" vertex="1">
          <mxGeometry x="1172" y="1383" width="160" height="50" as="geometry" />
        </mxCell>
        <mxCell id="Nn8z03dCiSWKTQsUW6GA-32" value="Funcionário" style="text;html=1;align=left;verticalAlign=middle;resizable=0;points=[];autosize=1;strokeColor=none;fillColor=none;fontSize=25;" parent="1" vertex="1">
          <mxGeometry x="133.00000000000023" y="1020" width="150" height="40" as="geometry" />
        </mxCell>
        <mxCell id="Nn8z03dCiSWKTQsUW6GA-33" value="CPF" style="rounded=0;whiteSpace=wrap;html=1;fontSize=20;fontStyle=4" parent="1" vertex="1">
          <mxGeometry x="133" y="1060" width="160" height="50" as="geometry" />
        </mxCell>
        <mxCell id="Nn8z03dCiSWKTQsUW6GA-34" value="nome" style="rounded=0;whiteSpace=wrap;html=1;fontSize=20;fontStyle=0" parent="1" vertex="1">
          <mxGeometry x="293" y="1060" width="160" height="50" as="geometry" />
        </mxCell>
        <mxCell id="4RG7odBrNEbPB10TdpqU-38" style="edgeStyle=orthogonalEdgeStyle;rounded=0;orthogonalLoop=1;jettySize=auto;html=1;exitX=0.5;exitY=0;exitDx=0;exitDy=0;entryX=0.75;entryY=1;entryDx=0;entryDy=0;" parent="1" source="Nn8z03dCiSWKTQsUW6GA-35" target="Nn8z03dCiSWKTQsUW6GA-9" edge="1">
          <mxGeometry relative="1" as="geometry" />
        </mxCell>
        <mxCell id="Nn8z03dCiSWKTQsUW6GA-35" value="biblioteca_id" style="rounded=0;whiteSpace=wrap;html=1;fontSize=20;fontStyle=0" parent="1" vertex="1">
          <mxGeometry x="453" y="1060" width="160" height="50" as="geometry" />
        </mxCell>
        <mxCell id="4RG7odBrNEbPB10TdpqU-14" value="PersonagensEmLivros" style="text;html=1;align=left;verticalAlign=middle;resizable=0;points=[];autosize=1;strokeColor=none;fillColor=none;fontSize=25;" parent="1" vertex="1">
          <mxGeometry x="674.0000000000003" y="1343" width="280" height="40" as="geometry" />
        </mxCell>
        <mxCell id="4RG7odBrNEbPB10TdpqU-59" style="edgeStyle=orthogonalEdgeStyle;rounded=0;orthogonalLoop=1;jettySize=auto;html=1;exitX=0.5;exitY=1;exitDx=0;exitDy=0;entryX=0.75;entryY=0;entryDx=0;entryDy=0;" parent="1" source="4RG7odBrNEbPB10TdpqU-21" target="Nn8z03dCiSWKTQsUW6GA-2" edge="1">
          <mxGeometry relative="1" as="geometry" />
        </mxCell>
        <mxCell id="4RG7odBrNEbPB10TdpqU-21" value="livro_id" style="rounded=0;whiteSpace=wrap;html=1;fontSize=20;fontStyle=4" parent="1" vertex="1">
          <mxGeometry x="674.0000000000001" y="1383" width="160" height="50" as="geometry" />
        </mxCell>
        <mxCell id="4RG7odBrNEbPB10TdpqU-63" style="edgeStyle=orthogonalEdgeStyle;rounded=0;orthogonalLoop=1;jettySize=auto;html=1;exitX=0.5;exitY=1;exitDx=0;exitDy=0;entryX=0.5;entryY=1;entryDx=0;entryDy=0;" parent="1" source="4RG7odBrNEbPB10TdpqU-22" target="Nn8z03dCiSWKTQsUW6GA-24" edge="1">
          <mxGeometry relative="1" as="geometry">
            <Array as="points">
              <mxPoint x="914" y="1473" />
              <mxPoint x="1252" y="1473" />
            </Array>
          </mxGeometry>
        </mxCell>
        <mxCell id="4RG7odBrNEbPB10TdpqU-22" value="personagem_id" style="rounded=0;whiteSpace=wrap;html=1;fontSize=20;fontStyle=4" parent="1" vertex="1">
          <mxGeometry x="834.0000000000001" y="1383" width="160" height="50" as="geometry" />
        </mxCell>
        <mxCell id="4RG7odBrNEbPB10TdpqU-27" value="sexo" style="rounded=0;whiteSpace=wrap;html=1;fontSize=20;fontStyle=0" parent="1" vertex="1">
          <mxGeometry x="1492" y="1383" width="160" height="50" as="geometry" />
        </mxCell>
        <mxCell id="4RG7odBrNEbPB10TdpqU-39" value="LivrosEmBibliotecas" style="text;html=1;align=left;verticalAlign=middle;resizable=0;points=[];autosize=1;strokeColor=none;fillColor=none;fontSize=25;" parent="1" vertex="1">
          <mxGeometry x="133.00000000000023" y="1343" width="250" height="40" as="geometry" />
        </mxCell>
        <mxCell id="4RG7odBrNEbPB10TdpqU-49" style="edgeStyle=orthogonalEdgeStyle;rounded=0;orthogonalLoop=1;jettySize=auto;html=1;exitX=0.25;exitY=1;exitDx=0;exitDy=0;entryX=0.25;entryY=0;entryDx=0;entryDy=0;" parent="1" source="4RG7odBrNEbPB10TdpqU-40" target="Nn8z03dCiSWKTQsUW6GA-2" edge="1">
          <mxGeometry relative="1" as="geometry" />
        </mxCell>
        <mxCell id="4RG7odBrNEbPB10TdpqU-40" value="livro_id" style="rounded=0;whiteSpace=wrap;html=1;fontSize=20;fontStyle=4" parent="1" vertex="1">
          <mxGeometry x="293" y="1383" width="160" height="50" as="geometry" />
        </mxCell>
        <mxCell id="4RG7odBrNEbPB10TdpqU-50" style="edgeStyle=orthogonalEdgeStyle;rounded=0;orthogonalLoop=1;jettySize=auto;html=1;exitX=0;exitY=0.5;exitDx=0;exitDy=0;entryX=0.25;entryY=1;entryDx=0;entryDy=0;" parent="1" source="4RG7odBrNEbPB10TdpqU-41" target="Nn8z03dCiSWKTQsUW6GA-9" edge="1">
          <mxGeometry relative="1" as="geometry">
            <Array as="points">
              <mxPoint x="100" y="1408" />
              <mxPoint x="100" y="1003" />
              <mxPoint x="340" y="1003" />
            </Array>
          </mxGeometry>
        </mxCell>
        <mxCell id="4RG7odBrNEbPB10TdpqU-41" value="biblioteca_id" style="rounded=0;whiteSpace=wrap;html=1;fontSize=20;fontStyle=4" parent="1" vertex="1">
          <mxGeometry x="133" y="1383" width="160" height="50" as="geometry" />
        </mxCell>
        <mxCell id="4RG7odBrNEbPB10TdpqU-57" value="quantidade" style="rounded=0;whiteSpace=wrap;html=1;fontSize=20;" parent="1" vertex="1">
          <mxGeometry x="453" y="1383" width="160" height="50" as="geometry" />
        </mxCell>
        <mxCell id="4RG7odBrNEbPB10TdpqU-64" value="dataCompra" style="rounded=0;whiteSpace=wrap;html=1;fontSize=20;fontStyle=4" parent="1" vertex="1">
          <mxGeometry x="1213" y="1060" width="160" height="50" as="geometry" />
        </mxCell>
        <mxCell id="EGvNruT1QqCo58oHShCS-1" value="título" style="rounded=0;whiteSpace=wrap;html=1;fontSize=20;fontStyle=0" vertex="1" parent="1">
          <mxGeometry x="773.5" y="1513" width="160" height="50" as="geometry" />
        </mxCell>
        <mxCell id="EGvNruT1QqCo58oHShCS-2" value="autor" style="rounded=0;whiteSpace=wrap;html=1;fontSize=20;" vertex="1" parent="1">
          <mxGeometry x="933.5" y="1513" width="160" height="50" as="geometry" />
        </mxCell>
      </root>
    </mxGraphModel>
  </diagram>
</mxfile>
